<svg width="48" height="48" viewBox="0 0 48 48" fill="none" xmlns="http://www.w3.org/2000/svg">
<g clip-path="url(#clip0_2639_4360)">
<path d="M0 9.6C0 6.23968 0 4.55953 0.653961 3.27606C1.2292 2.14708 2.14708 1.2292 3.27606 0.653961C4.55953 0 6.23969 0 9.6 0H38.4C41.7603 0 43.4405 0 44.7239 0.653961C45.8529 1.2292 46.7708 2.14708 47.346 3.27606C48 4.55953 48 6.23969 48 9.6V38.4C48 41.7603 48 43.4405 47.346 44.7239C46.7708 45.8529 45.8529 46.7708 44.7239 47.346C43.4405 48 41.7603 48 38.4 48H9.6C6.23968 48 4.55953 48 3.27606 47.346C2.14708 46.7708 1.2292 45.8529 0.653961 44.7239C0 43.4405 0 41.7603 0 38.4V9.6Z" fill="#E4DEFC"/>
<path d="M8 23C8 20.2386 10.2386 18 13 18H48V58H8V23Z" fill="#EDE9FE"/>
<path d="M13 18C13 15.2386 15.2386 13 18 13H53V53H13V18Z" fill="#F5F2FF"/>
<path d="M18 13C18 10.2386 20.2386 8 23 8H58V48H18V13Z" fill="#FBFAFF"/>
<path d="M25.9776 17.1903L27.6645 23.9378C27.8986 24.874 29.1919 24.9684 29.5593 24.076L30.8767 20.8767L34.076 19.5593C34.9684 19.1919 34.874 17.8986 33.9378 17.6645L27.1903 15.9776C26.4579 15.7945 25.7945 16.4579 25.9776 17.1903Z" fill="#5746AF"/>
</g>
<path d="M0.5 9.6C0.5 7.91159 0.500389 6.67536 0.580085 5.69993C0.659303 4.73034 0.814384 4.06255 1.09946 3.50305C1.62677 2.46816 2.46816 1.62677 3.50305 1.09946C4.06255 0.814384 4.73034 0.659303 5.69993 0.580085C6.67536 0.500389 7.91159 0.5 9.6 0.5H38.4C40.0884 0.5 41.3246 0.500389 42.3001 0.580085C43.2697 0.659303 43.9374 0.814384 44.4969 1.09946C45.5318 1.62677 46.3732 2.46816 46.9005 3.50305C47.1856 4.06255 47.3407 4.73034 47.4199 5.69993C47.4996 6.67536 47.5 7.91159 47.5 9.6V38.4C47.5 40.0884 47.4996 41.3246 47.4199 42.3001C47.3407 43.2697 47.1856 43.9374 46.9005 44.4969C46.3732 45.5318 45.5318 46.3732 44.4969 46.9005C43.9374 47.1856 43.2697 47.3407 42.3001 47.4199C41.3246 47.4996 40.0884 47.5 38.4 47.5H9.6C7.91159 47.5 6.67536 47.4996 5.69993 47.4199C4.73034 47.3407 4.06255 47.1856 3.50305 46.9005C2.46816 46.3732 1.62677 45.5318 1.09946 44.4969C0.814384 43.9374 0.659303 43.2697 0.580085 42.3001C0.500389 41.3246 0.5 40.0884 0.5 38.4V9.6Z" stroke="black" stroke-opacity="0.05"/>
<defs>
<clipPath id="clip0_2639_4360">
<path d="M0 9.6C0 6.23968 0 4.55953 0.653961 3.27606C1.2292 2.14708 2.14708 1.2292 3.27606 0.653961C4.55953 0 6.23969 0 9.6 0H38.4C41.7603 0 43.4405 0 44.7239 0.653961C45.8529 1.2292 46.7708 2.14708 47.346 3.27606C48 4.55953 48 6.23969 48 9.6V38.4C48 41.7603 48 43.4405 47.346 44.7239C46.7708 45.8529 45.8529 46.7708 44.7239 47.346C43.4405 48 41.7603 48 38.4 48H9.6C6.23968 48 4.55953 48 3.27606 47.346C2.14708 46.7708 1.2292 45.8529 0.653961 44.7239C0 43.4405 0 41.7603 0 38.4V9.6Z" fill="white"/>
</clipPath>
</defs>
</svg>
