<svg xmlns="http://www.w3.org/2000/svg" width="120" height="120" fill="none" viewBox="0 0 120 120"><g filter="url(#a)"><path fill="url(#b)" d="M22 42a6 6 0 0 1 6-6h64a6 6 0 0 1 6 6v44a6 6 0 0 1-6 6H28a6 6 0 0 1-6-6V42Z"/><path fill="#fff" fill-rule="evenodd" d="M92 38H28a4 4 0 0 0-4 4v44a4 4 0 0 0 4 4h64a4 4 0 0 0 4-4V42a4 4 0 0 0-4-4Zm-64-2a6 6 0 0 0-6 6v44a6 6 0 0 0 6 6h64a6 6 0 0 0 6-6V42a6 6 0 0 0-6-6H28Z" clip-rule="evenodd"/><path fill="url(#c)" fill-rule="evenodd" d="M92 37H28a5 5 0 0 0-5 5v44a5 5 0 0 0 5 5h64a5 5 0 0 0 5-5V42a5 5 0 0 0-5-5Zm-64-1a6 6 0 0 0-6 6v44a6 6 0 0 0 6 6h64a6 6 0 0 0 6-6V42a6 6 0 0 0-6-6H28Z" clip-rule="evenodd"/><path fill="#BDBEC2" d="M28 50.566a2 2 0 0 1 2-2h6.868a2 2 0 0 1 2 2v6.868a2 2 0 0 1-2 2H30a2 2 0 0 1-2-2v-6.868Zm2 11.283a2 2 0 0 0-2 2v6.868a2 2 0 0 0 2 2h6.868a2 2 0 0 0 2-2v-6.868a2 2 0 0 0-2-2H30Zm11.283 15.283a2 2 0 0 1 2-2h6.868a2 2 0 0 1 2 2V84a2 2 0 0 1-2 2h-6.868a2 2 0 0 1-2-2v-6.868Zm13.283 0a2 2 0 0 1 2-2h6.868a2 2 0 0 1 2 2V84a2 2 0 0 1-2 2h-6.868a2 2 0 0 1-2-2v-6.868Zm15.284-2a2 2 0 0 0-2 2V84a2 2 0 0 0 2 2h6.867a2 2 0 0 0 2-2v-6.868a2 2 0 0 0-2-2h-6.868Zm11.282 2a2 2 0 0 1 2-2H90a2 2 0 0 1 2 2V84a2 2 0 0 1-2 2h-6.868a2 2 0 0 1-2-2v-6.868ZM41.283 63.849a2 2 0 0 1 2-2h6.868a2 2 0 0 1 2 2v6.868a2 2 0 0 1-2 2h-6.868a2 2 0 0 1-2-2v-6.868Zm15.283-2a2 2 0 0 0-2 2v6.868a2 2 0 0 0 2 2h6.868a2 2 0 0 0 2-2v-6.868a2 2 0 0 0-2-2h-6.868Zm11.284 2a2 2 0 0 1 2-2h6.867a2 2 0 0 1 2 2v6.868a2 2 0 0 1-2 2h-6.868a2 2 0 0 1-2-2v-6.868Zm15.282-2a2 2 0 0 0-2 2v6.868a2 2 0 0 0 2 2H90a2 2 0 0 0 2-2v-6.868a2 2 0 0 0-2-2h-6.868ZM43.283 48.566a2 2 0 0 0-2 2v6.868a2 2 0 0 0 2 2h6.868a2 2 0 0 0 2-2v-6.868a2 2 0 0 0-2-2h-6.868Zm11.283 2a2 2 0 0 1 2-2h6.868a2 2 0 0 1 2 2v6.868a2 2 0 0 1-2 2h-6.868a2 2 0 0 1-2-2v-6.868Zm15.284-2a2 2 0 0 0-2 2v6.868a2 2 0 0 0 2 2h6.867a2 2 0 0 0 2-2v-6.868a2 2 0 0 0-2-2h-6.868Zm11.282 2a2 2 0 0 1 2-2H90a2 2 0 0 1 2 2v6.868a2 2 0 0 1-2 2h-6.868a2 2 0 0 1-2-2v-6.868Z"/><path fill="#BDBEC2" fill-rule="evenodd" d="M28 77.445A2.444 2.444 0 0 1 30.444 75h6.112A2.444 2.444 0 0 1 39 77.445v6.11A2.444 2.444 0 0 1 36.556 86h-6.112A2.444 2.444 0 0 1 28 83.556v-6.111Zm8.991.572a.965.965 0 0 0-1.383 0L32.8 80.883l-1.409-1.438a.965.965 0 0 0-1.383 0 1 1 0 0 0 0 1.395l2.1 2.143a.965.965 0 0 0 1.383 0l3.5-3.571a1 1 0 0 0 0-1.395Z" clip-rule="evenodd"/><path fill="#BDBEC2" d="M38 30a3 3 0 1 1 6 0v10a3 3 0 0 1-6 0V30Zm39 0a3 3 0 1 1 6 0v10a3 3 0 0 1-6 0V30Z"/><path fill="#262A33" d="M106 90c0 5.523-4.477 10-10 10s-10-4.477-10-10 4.477-10 10-10 10 4.477 10 10Z"/><path fill="url(#d)" fill-rule="evenodd" d="M96 99a9 9 0 0 0 9-9 9 9 0 1 0-9 9Zm0 1c5.523 0 10-4.477 10-10s-4.477-10-10-10-10 4.477-10 10 4.477 10 10 10Z" clip-rule="evenodd"/><path fill="#fff" fill-rule="evenodd" d="M101.707 86.293a1 1 0 0 1 0 1.414L95.914 93.5c-1 1-1.828 1-2.828 0l-2.793-2.793a1 1 0 0 1 1.414-1.414l2.722 2.722a.1.1 0 0 0 .142 0l5.722-5.722a1 1 0 0 1 1.414 0Z" clip-rule="evenodd"/></g><defs><filter id="a" width="140" height="140" x="-10" y="-2" color-interpolation-filters="sRGB" filterUnits="userSpaceOnUse"><feFlood flood-opacity="0" result="BackgroundImageFix"/><feColorMatrix in="SourceAlpha" result="hardAlpha" values="0 0 0 0 0 0 0 0 0 0 0 0 0 0 0 0 0 0 127 0"/><feOffset dy="8"/><feGaussianBlur stdDeviation="5"/><feComposite in2="hardAlpha" operator="out"/><feColorMatrix values="0 0 0 0 0.34902 0 0 0 0 0.364706 0 0 0 0 0.4 0 0 0 0.2 0"/><feBlend in2="BackgroundImageFix" result="effect1_dropShadow_6_482"/><feBlend in="SourceGraphic" in2="effect1_dropShadow_6_482" result="shape"/></filter><linearGradient id="b" x1="46" x2="46.443" y1="90.708" y2="24.163" gradientUnits="userSpaceOnUse"><stop stop-color="#fff"/><stop offset="1" stop-color="#EEEFF0"/></linearGradient><linearGradient id="c" x1="60" x2="60" y1="36" y2="92" gradientUnits="userSpaceOnUse"><stop stop-color="#DEDFE0"/><stop offset="1" stop-color="#EEEFF0"/></linearGradient><linearGradient id="d" x1="96" x2="96" y1="80" y2="100" gradientUnits="userSpaceOnUse"><stop stop-color="#595D66"/><stop offset="1" stop-color="#1D2026"/></linearGradient></defs></svg>