<svg xmlns="http://www.w3.org/2000/svg" width="120" height="120" fill="none" viewBox="0 0 120 120"><g filter="url(#a)"><path fill="url(#b)" d="M28 44c0-8.837 7.163-16 16-16h32c8.837 0 16 7.163 16 16v32c0 8.837-7.163 16-16 16H44c-8.837 0-16-7.163-16-16V44Z"/><path fill="#fff" fill-rule="evenodd" d="M90 76V44c0-7.732-6.268-14-14-14H44c-7.732 0-14 6.268-14 14v32c0 7.732 6.268 14 14 14h32c7.732 0 14-6.268 14-14ZM44 28c-8.837 0-16 7.163-16 16v32c0 8.837 7.163 16 16 16h32c8.837 0 16-7.163 16-16V44c0-8.837-7.163-16-16-16H44Z" clip-rule="evenodd"/><path fill="url(#c)" fill-rule="evenodd" d="M91 76V44c0-8.284-6.716-15-15-15H44c-8.284 0-15 6.716-15 15v32c0 8.284 6.716 15 15 15h32c8.284 0 15-6.716 15-15ZM44 28c-8.837 0-16 7.163-16 16v32c0 8.837 7.163 16 16 16h32c8.837 0 16-7.163 16-16V44c0-8.837-7.163-16-16-16H44Z" clip-rule="evenodd"/><path fill="#BDBEC2" fill-rule="evenodd" d="M58.363 43.38a2.5 2.5 0 0 1 3.274 0l11.31 9.802a2.5 2.5 0 0 1 .212 3.57l-3.05 3.356a2.5 2.5 0 0 1-3.47.223L60 54.687l-6.64 5.644a2.5 2.5 0 0 1-3.469-.223l-3.05-3.355a2.5 2.5 0 0 1 .212-3.571l11.31-9.802ZM60 46.372l-10.119 8.77 1.934 2.127 6.998-5.947a1.834 1.834 0 0 1 2.374 0l6.998 5.947 1.934-2.127L60 46.372Zm-8.56 20.75-1.932 1.502c1.637 1.86 5.222 5.043 10.492 5.043 5.27 0 8.855-3.184 10.492-5.043l-1.932-1.503a15.49 15.49 0 0 1-2.137 1.845c-1.58 1.125-3.779 2.2-6.423 2.2s-4.843-1.075-6.423-2.2a15.49 15.49 0 0 1-2.137-1.845Zm-1.002-3.444a1.928 1.928 0 0 1 2.693.327 12.149 12.149 0 0 0 2.378 2.245c1.238.88 2.77 1.583 4.491 1.583 1.722 0 3.253-.702 4.49-1.583a12.149 12.149 0 0 0 2.38-2.245 1.928 1.928 0 0 1 2.692-.327l3.693 2.872c1.005.781 1.325 2.291.45 3.42C72.288 71.793 67.608 77 60 77s-12.29-5.206-13.705-7.03c-.875-1.129-.555-2.639.45-3.42l3.693-2.872Z" clip-rule="evenodd"/></g><defs><filter id="a" width="140" height="140" x="-10" y="-2" color-interpolation-filters="sRGB" filterUnits="userSpaceOnUse"><feFlood flood-opacity="0" result="BackgroundImageFix"/><feColorMatrix in="SourceAlpha" result="hardAlpha" values="0 0 0 0 0 0 0 0 0 0 0 0 0 0 0 0 0 0 127 0"/><feOffset dy="8"/><feGaussianBlur stdDeviation="5"/><feComposite in2="hardAlpha" operator="out"/><feColorMatrix values="0 0 0 0 0.34902 0 0 0 0 0.364706 0 0 0 0 0.4 0 0 0 0.2 0"/><feBlend in2="BackgroundImageFix" result="effect1_dropShadow_6_482"/><feBlend in="SourceGraphic" in2="effect1_dropShadow_6_482" result="shape"/></filter><linearGradient id="b" x1="48.211" x2="48.897" y1="90.523" y2="14.474" gradientUnits="userSpaceOnUse"><stop stop-color="#fff"/><stop offset="1" stop-color="#EEEFF0"/></linearGradient><linearGradient id="c" x1="60" x2="60" y1="28" y2="92" gradientUnits="userSpaceOnUse"><stop stop-color="#DEDFE0"/><stop offset="1" stop-color="#EEEFF0"/></linearGradient></defs></svg>