<svg xmlns="http://www.w3.org/2000/svg" width="120" height="120" fill="none" viewBox="0 0 120 120"><g filter="url(#a)"><path fill="url(#b)" d="M28 26a6 6 0 0 0-6 6v28a6 6 0 0 0 6 6h2.5a.5.5 0 0 1 .5.5v4.672c0 1.781 2.154 2.674 3.414 1.414l5.707-5.707A3 3 0 0 1 42.243 66H65a6 6 0 0 0 6-6V32a6 6 0 0 0-6-6H28Z"/><path fill="#fff" fill-rule="evenodd" d="M28 28a4 4 0 0 0-4 4v28a4 4 0 0 0 4 4h2.5a2.5 2.5 0 0 1 2.5 2.5v4.672l5.707-5.707A5 5 0 0 1 42.243 64H65a4 4 0 0 0 4-4V32a4 4 0 0 0-4-4H28Zm-6 4a6 6 0 0 1 6-6h37a6 6 0 0 1 6 6v28a6 6 0 0 1-6 6H42.243a3 3 0 0 0-2.122.879l-5.707 5.707c-1.26 1.26-3.414.367-3.414-1.414V66.5a.5.5 0 0 0-.5-.5H28a6 6 0 0 1-6-6V32Z" clip-rule="evenodd"/><path fill="url(#c)" fill-rule="evenodd" d="M32 65v6.172c0 .89 1.077 1.337 1.707.707L40.586 65H65a5 5 0 0 0 5-5V32a5 5 0 0 0-5-5H28a5 5 0 0 0-5 5v28a5 5 0 0 0 5 5h4Zm-4 1a6 6 0 0 1-6-6V32a6 6 0 0 1 6-6h37a6 6 0 0 1 6 6v28a6 6 0 0 1-6 6H41l-6.586 6.586c-1.26 1.26-3.414.367-3.414-1.414V66h-3Z" clip-rule="evenodd"/><path fill="url(#d)" d="M55 45a6 6 0 0 0-6 6v28a6 6 0 0 0 6 6h2.5a.5.5 0 0 1 .5.5v4.672c0 1.781 2.154 2.674 3.414 1.414l5.707-5.707A3 3 0 0 1 69.243 85H92a6 6 0 0 0 6-6V51a6 6 0 0 0-6-6H55Z"/><path fill="#fff" fill-rule="evenodd" d="M55 47a4 4 0 0 0-4 4v28a4 4 0 0 0 4 4h2.5a2.5 2.5 0 0 1 2.5 2.5v4.672l5.707-5.707A5 5 0 0 1 69.243 83H92a4 4 0 0 0 4-4V51a4 4 0 0 0-4-4H55Zm-6 4a6 6 0 0 1 6-6h37a6 6 0 0 1 6 6v28a6 6 0 0 1-6 6H69.243a3 3 0 0 0-2.122.879l-5.707 5.707c-1.26 1.26-3.414.367-3.414-1.414V85.5a.5.5 0 0 0-.5-.5H55a6 6 0 0 1-6-6V51Z" clip-rule="evenodd"/><path fill="url(#e)" fill-rule="evenodd" d="M59 84v6.172c0 .89 1.077 1.337 1.707.707L67.586 84H92a5 5 0 0 0 5-5V51a5 5 0 0 0-5-5H55a5 5 0 0 0-5 5v28a5 5 0 0 0 5 5h4Zm-4 1a6 6 0 0 1-6-6V51a6 6 0 0 1 6-6h37a6 6 0 0 1 6 6v28a6 6 0 0 1-6 6H68l-6.586 6.586c-1.26 1.26-3.414.367-3.414-1.414V85h-3Z" clip-rule="evenodd"/><path fill="#BDBEC2" d="M68 65a3 3 0 1 1-6 0 3 3 0 0 1 6 0Zm9 0a3 3 0 1 1-6 0 3 3 0 0 1 6 0Zm9 0a3 3 0 1 1-6 0 3 3 0 0 1 6 0Z"/><path fill="#262A33" d="M108 90c0 5.523-4.477 10-10 10s-10-4.477-10-10 4.477-10 10-10 10 4.477 10 10Z"/><path fill="url(#f)" fill-rule="evenodd" d="M98 99a9 9 0 0 0 9-9 9 9 0 1 0-9 9Zm0 1c5.523 0 10-4.477 10-10s-4.477-10-10-10-10 4.477-10 10 4.477 10 10 10Z" clip-rule="evenodd"/><path fill="#fff" fill-rule="evenodd" d="M103.707 86.293a1 1 0 0 1 0 1.414L97.914 93.5c-1 1-1.828 1-2.828 0l-2.793-2.793a1 1 0 0 1 1.414-1.414l2.722 2.722a.1.1 0 0 0 .142 0l5.722-5.722a1 1 0 0 1 1.414 0Z" clip-rule="evenodd"/></g><defs><filter id="a" width="140" height="140" x="-10" y="-2" color-interpolation-filters="sRGB" filterUnits="userSpaceOnUse"><feFlood flood-opacity="0" result="BackgroundImageFix"/><feColorMatrix in="SourceAlpha" result="hardAlpha" values="0 0 0 0 0 0 0 0 0 0 0 0 0 0 0 0 0 0 127 0"/><feOffset dy="8"/><feGaussianBlur stdDeviation="5"/><feComposite in2="hardAlpha" operator="out"/><feColorMatrix values="0 0 0 0 0.34902 0 0 0 0 0.364706 0 0 0 0 0.4 0 0 0 0.2 0"/><feBlend in2="BackgroundImageFix" result="effect1_dropShadow_6_482"/><feBlend in="SourceGraphic" in2="effect1_dropShadow_6_482" result="shape"/></filter><linearGradient id="b" x1="44" x2="40.571" y1="53" y2="27.186" gradientUnits="userSpaceOnUse"><stop stop-color="#fff"/><stop offset="1" stop-color="#EEEFF0"/></linearGradient><linearGradient id="c" x1="46.5" x2="46.5" y1="26" y2="73.176" gradientUnits="userSpaceOnUse"><stop stop-color="#DEDFE0"/><stop offset="1" stop-color="#EEEFF0"/></linearGradient><linearGradient id="d" x1="64.474" x2="64.982" y1="91.064" y2="33.819" gradientUnits="userSpaceOnUse"><stop stop-color="#fff"/><stop offset="1" stop-color="#EEEFF0"/></linearGradient><linearGradient id="e" x1="73.5" x2="73.5" y1="45" y2="92.176" gradientUnits="userSpaceOnUse"><stop stop-color="#DEDFE0"/><stop offset="1" stop-color="#EEEFF0"/></linearGradient><linearGradient id="f" x1="98" x2="98" y1="80" y2="100" gradientUnits="userSpaceOnUse"><stop stop-color="#595D66"/><stop offset="1" stop-color="#1D2026"/></linearGradient></defs></svg>