<svg width="49" height="48" viewBox="0 0 49 48" fill="none" xmlns="http://www.w3.org/2000/svg">
<g clip-path="url(#clip0_2639_4365)">
<path d="M0.25 9.6C0.25 6.23968 0.25 4.55953 0.903961 3.27606C1.4792 2.14708 2.39708 1.2292 3.52606 0.653961C4.80953 0 6.48969 0 9.85 0H38.65C42.0103 0 43.6905 0 44.9739 0.653961C46.1029 1.2292 47.0208 2.14708 47.596 3.27606C48.25 4.55953 48.25 6.23969 48.25 9.6V38.4C48.25 41.7603 48.25 43.4405 47.596 44.7239C47.0208 45.8529 46.1029 46.7708 44.9739 47.346C43.6905 48 42.0103 48 38.65 48H9.85C6.48968 48 4.80953 48 3.52606 47.346C2.39708 46.7708 1.4792 45.8529 0.903961 44.7239C0.25 43.4405 0.25 41.7603 0.25 38.4V9.6Z" fill="#FFC291"/>
<path d="M8.25 13C8.25 10.2386 10.4886 8 13.25 8H48.25V48H8.25V13Z" fill="#FEF8F4"/>
<path fill-rule="evenodd" clip-rule="evenodd" d="M18.2502 14.25C18.4104 14.25 18.5564 14.3418 18.6258 14.4862L19.613 16.541L21.8722 16.8449C22.031 16.8663 22.1635 16.9767 22.213 17.1291C22.2625 17.2815 22.2202 17.4487 22.1044 17.5593L20.4552 19.1331L20.8643 21.3757C20.8931 21.5333 20.8289 21.6934 20.6993 21.7876C20.5697 21.8817 20.3976 21.8933 20.2566 21.8172L18.2502 20.7351L16.2438 21.8172C16.1028 21.8933 15.9307 21.8817 15.8011 21.7876C15.6715 21.6934 15.6074 21.5333 15.6361 21.3757L16.0453 19.1331L14.3961 17.5593C14.2802 17.4487 14.238 17.2815 14.2875 17.1291C14.337 16.9767 14.4695 16.8663 14.6282 16.8449L16.8875 16.541L17.8747 14.4862C17.944 14.3418 18.09 14.25 18.2502 14.25Z" fill="#99543A"/>
<path fill-rule="evenodd" clip-rule="evenodd" d="M22.75 28C23.5784 28 24.25 28.6716 24.25 29.5C24.25 30.3284 23.5784 31 22.75 31L15.75 31C14.9216 31 14.25 30.3284 14.25 29.5C14.25 28.6716 14.9216 28 15.75 28L22.75 28Z" fill="#F76808"/>
<path fill-rule="evenodd" clip-rule="evenodd" d="M18.75 34C19.5784 34 20.25 34.6716 20.25 35.5C20.25 36.3284 19.5784 37 18.75 37L15.75 37C14.9216 37 14.25 36.3284 14.25 35.5C14.25 34.6716 14.9216 34 15.75 34L18.75 34Z" fill="#ED8A5C"/>
<path fill-rule="evenodd" clip-rule="evenodd" d="M29.75 34C30.5784 34 31.25 34.6716 31.25 35.5C31.25 36.3284 30.5784 37 29.75 37L23.75 37C22.9216 37 22.25 36.3284 22.25 35.5C22.25 34.6716 22.9216 34 23.75 34L29.75 34Z" fill="#FFC291"/>
<path fill-rule="evenodd" clip-rule="evenodd" d="M19.75 40C20.5784 40 21.25 40.6716 21.25 41.5C21.25 42.3284 20.5784 43 19.75 43L15.75 43C14.9216 43 14.25 42.3284 14.25 41.5C14.25 40.6716 14.9216 40 15.75 40L19.75 40Z" fill="#FFC291"/>
<path d="M28.25 18C28.25 15.2386 30.4886 13 33.25 13H48.25V48H28.25V18Z" fill="#FFE0BB"/>
<path d="M35.25 26.278V13H42.25V26.2768C42.25 27.0446 41.4205 27.526 40.7539 27.1451L38.75 26L36.7461 27.1451C36.0795 27.526 35.25 27.0458 35.25 26.278Z" fill="#ED5F00"/>
</g>
<path d="M0.75 9.6C0.75 7.91159 0.750389 6.67536 0.830085 5.69993C0.909303 4.73034 1.06438 4.06255 1.34946 3.50305C1.87677 2.46816 2.71816 1.62677 3.75305 1.09946C4.31255 0.814384 4.98034 0.659303 5.94993 0.580085C6.92536 0.500389 8.16159 0.5 9.85 0.5H38.65C40.3384 0.5 41.5746 0.500389 42.5501 0.580085C43.5197 0.659303 44.1874 0.814384 44.7469 1.09946C45.7818 1.62677 46.6232 2.46816 47.1505 3.50305C47.4356 4.06255 47.5907 4.73034 47.6699 5.69993C47.7496 6.67536 47.75 7.91159 47.75 9.6V38.4C47.75 40.0884 47.7496 41.3246 47.6699 42.3001C47.5907 43.2697 47.4356 43.9374 47.1505 44.4969C46.6232 45.5318 45.7818 46.3732 44.7469 46.9005C44.1874 47.1856 43.5197 47.3407 42.5501 47.4199C41.5746 47.4996 40.3384 47.5 38.65 47.5H9.85C8.16159 47.5 6.92536 47.4996 5.94993 47.4199C4.98034 47.3407 4.31255 47.1856 3.75305 46.9005C2.71816 46.3732 1.87677 45.5318 1.34946 44.4969C1.06438 43.9374 0.909303 43.2697 0.830085 42.3001C0.750389 41.3246 0.75 40.0884 0.75 38.4V9.6Z" stroke="black" stroke-opacity="0.05"/>
<defs>
<clipPath id="clip0_2639_4365">
<path d="M0.25 9.6C0.25 6.23968 0.25 4.55953 0.903961 3.27606C1.4792 2.14708 2.39708 1.2292 3.52606 0.653961C4.80953 0 6.48969 0 9.85 0H38.65C42.0103 0 43.6905 0 44.9739 0.653961C46.1029 1.2292 47.0208 2.14708 47.596 3.27606C48.25 4.55953 48.25 6.23969 48.25 9.6V38.4C48.25 41.7603 48.25 43.4405 47.596 44.7239C47.0208 45.8529 46.1029 46.7708 44.9739 47.346C43.6905 48 42.0103 48 38.65 48H9.85C6.48968 48 4.80953 48 3.52606 47.346C2.39708 46.7708 1.4792 45.8529 0.903961 44.7239C0.25 43.4405 0.25 41.7603 0.25 38.4V9.6Z" fill="white"/>
</clipPath>
</defs>
</svg>
