<svg xmlns="http://www.w3.org/2000/svg" width="120" height="140" fill="none" viewBox="0 0 120 140"><g filter="url(#a)"><mask id="b" width="50" height="66" x="35" y="27" maskUnits="userSpaceOnUse" style="mask-type:alpha"><path fill="#D9D9D9" d="M35 86.204V32.797A5.797 5.797 0 0 1 40.797 27H68.32a5.8 5.8 0 0 1 4.09 1.688L83.292 39.52A5.796 5.796 0 0 1 85 43.628v42.576A5.796 5.796 0 0 1 79.204 92H40.797A5.796 5.796 0 0 1 35 86.204Z"/></mask><g mask="url(#b)"><path fill="url(#c)" d="M35 86V33a6 6 0 0 1 6-6h27.158a6 6 0 0 1 4.219 1.734l10.842 10.724A6 6 0 0 1 85 43.723V86a6 6 0 0 1-6 6H41a6 6 0 0 1-6-6Z"/><path fill="#fff" fill-rule="evenodd" d="M37 33v53a4 4 0 0 0 4 4h38a4 4 0 0 0 4-4V43.723a4 4 0 0 0-1.187-2.843L70.97 30.155A4 4 0 0 0 68.159 29H41a4 4 0 0 0-4 4Zm-2 0v53a6 6 0 0 0 6 6h38a6 6 0 0 0 6-6V43.723a6 6 0 0 0-1.78-4.265L72.376 28.734A6 6 0 0 0 68.157 27H41a6 6 0 0 0-6 6Z" clip-rule="evenodd"/><path fill="url(#d)" fill-rule="evenodd" d="M36 33v53a5 5 0 0 0 5 5h38a5 5 0 0 0 5-5V43.723a5 5 0 0 0-1.484-3.554L71.674 29.445A5 5 0 0 0 68.158 28H41a5 5 0 0 0-5 5Zm-1 0v53a6 6 0 0 0 6 6h38a6 6 0 0 0 6-6V43.723a6 6 0 0 0-1.78-4.265L72.376 28.734A6 6 0 0 0 68.157 27H41a6 6 0 0 0-6 6Z" clip-rule="evenodd"/><g filter="url(#e)"><path fill="url(#f)" d="M89 42 70 23v12.376A6.624 6.624 0 0 0 76.624 42H89Z"/></g><g filter="url(#g)"><path fill="#fff" fill-rule="evenodd" d="M70 23v12.376A6.624 6.624 0 0 0 76.624 42H89L70 23Zm2 4.828v7.548A4.624 4.624 0 0 0 76.624 40h7.548L72 27.828Z" clip-rule="evenodd"/></g><path fill="url(#h)" fill-rule="evenodd" d="M70 23v12.376A6.624 6.624 0 0 0 76.624 42H89L70 23Zm1 2.414v9.962A5.624 5.624 0 0 0 76.624 41h9.962L71 25.414Z" clip-rule="evenodd"/><path fill="#C7C7C7" fill-rule="evenodd" d="M45 51.294c0-.542.436-.98.973-.98h29.054c.537 0 .973.438.973.98 0 .54-.436.98-.973.98H45.973a.977.977 0 0 1-.973-.98Zm0 7.52c0-.54.436-.98.973-.98h29.054c.537 0 .973.44.973.98 0 .541-.436.98-.973.98H45.973a.977.977 0 0 1-.973-.98Zm0 7.52c0-.541.436-.98.973-.98h29.054c.537 0 .973.439.973.98 0 .541-.436.98-.973.98H45.973a.977.977 0 0 1-.973-.98Z" clip-rule="evenodd"/></g><path fill="#171717" d="M93 90c0 5.523-4.477 10-10 10s-10-4.477-10-10 4.477-10 10-10 10 4.477 10 10Z"/><path fill="url(#i)" fill-rule="evenodd" d="M83 99a9 9 0 1 0 0-18 9 9 0 0 0 0 18Zm0 1c5.523 0 10-4.477 10-10s-4.477-10-10-10-10 4.477-10 10 4.477 10 10 10Z" clip-rule="evenodd"/><path fill="#fff" d="M82.426 85.311a.62.62 0 0 1 1.13 0l.946 2.08a.62.62 0 0 0 .495.36l2.27.257a.62.62 0 0 1 .35 1.074l-1.686 1.543a.62.62 0 0 0-.19.581l.458 2.24a.62.62 0 0 1-.914.663l-1.988-1.126a.62.62 0 0 0-.612 0l-1.988 1.126a.62.62 0 0 1-.914-.664l.457-2.239a.62.62 0 0 0-.189-.582l-1.685-1.542a.62.62 0 0 1 .349-1.074l2.27-.258a.62.62 0 0 0 .495-.36l.946-2.079Z"/></g><defs><filter id="a" width="160" height="160" x="-20" y="0" color-interpolation-filters="sRGB" filterUnits="userSpaceOnUse"><feFlood flood-opacity="0" result="BackgroundImageFix"/><feColorMatrix in="SourceAlpha" result="hardAlpha" values="0 0 0 0 0 0 0 0 0 0 0 0 0 0 0 0 0 0 127 0"/><feMorphology in="SourceAlpha" radius="6" result="effect1_dropShadow_741_597"/><feOffset dy="8"/><feGaussianBlur stdDeviation="5"/><feComposite in2="hardAlpha" operator="out"/><feColorMatrix values="0 0 0 0 0 0 0 0 0 0 0 0 0 0 0 0 0 0 0.1 0"/><feBlend in2="BackgroundImageFix" result="effect1_dropShadow_741_597"/><feColorMatrix in="SourceAlpha" result="hardAlpha" values="0 0 0 0 0 0 0 0 0 0 0 0 0 0 0 0 0 0 127 0"/><feMorphology in="SourceAlpha" radius="5" result="effect2_dropShadow_741_597"/><feOffset dy="20"/><feGaussianBlur stdDeviation="12.5"/><feComposite in2="hardAlpha" operator="out"/><feColorMatrix values="0 0 0 0 0 0 0 0 0 0 0 0 0 0 0 0 0 0 0.1 0"/><feBlend in2="effect1_dropShadow_741_597" result="effect2_dropShadow_741_597"/><feBlend in="SourceGraphic" in2="effect2_dropShadow_741_597" result="shape"/></filter><filter id="e" width="43" height="43" x="58" y="14" color-interpolation-filters="sRGB" filterUnits="userSpaceOnUse"><feFlood flood-opacity="0" result="BackgroundImageFix"/><feColorMatrix in="SourceAlpha" result="hardAlpha" values="0 0 0 0 0 0 0 0 0 0 0 0 0 0 0 0 0 0 127 0"/><feOffset dy="3"/><feGaussianBlur stdDeviation="6"/><feComposite in2="hardAlpha" operator="out"/><feColorMatrix values="0 0 0 0 0.34902 0 0 0 0 0.364706 0 0 0 0 0.4 0 0 0 0.2 0"/><feBlend in2="BackgroundImageFix" result="effect1_dropShadow_741_597"/><feBlend in="SourceGraphic" in2="effect1_dropShadow_741_597" result="shape"/></filter><filter id="g" width="43" height="43" x="58" y="14" color-interpolation-filters="sRGB" filterUnits="userSpaceOnUse"><feFlood flood-opacity="0" result="BackgroundImageFix"/><feColorMatrix in="SourceAlpha" result="hardAlpha" values="0 0 0 0 0 0 0 0 0 0 0 0 0 0 0 0 0 0 127 0"/><feOffset dy="3"/><feGaussianBlur stdDeviation="6"/><feComposite in2="hardAlpha" operator="out"/><feColorMatrix values="0 0 0 0 0.34902 0 0 0 0 0.364706 0 0 0 0 0.4 0 0 0 0.2 0"/><feBlend in2="BackgroundImageFix" result="effect1_dropShadow_741_597"/><feBlend in="SourceGraphic" in2="effect1_dropShadow_741_597" result="shape"/></filter><linearGradient id="c" x1="40.834" x2="80.294" y1="92" y2="34.359" gradientUnits="userSpaceOnUse"><stop stop-color="#fff"/><stop offset="1" stop-color="#EDEDED"/></linearGradient><linearGradient id="d" x1="60" x2="60" y1="27" y2="92" gradientUnits="userSpaceOnUse"><stop stop-color="#E2E2E2"/><stop offset="1" stop-color="#EDEDED"/></linearGradient><linearGradient id="f" x1="72.478" x2="86.109" y1="39.935" y2="29.196" gradientUnits="userSpaceOnUse"><stop stop-color="#fff"/><stop offset="1" stop-color="#EEEFF0"/></linearGradient><linearGradient id="h" x1="79.5" x2="79.5" y1="23" y2="42" gradientUnits="userSpaceOnUse"><stop stop-color="#E2E2E2"/><stop offset="1" stop-color="#EDEDED"/></linearGradient><linearGradient id="i" x1="83" x2="83" y1="80" y2="100" gradientUnits="userSpaceOnUse"><stop stop-color="#6F6F6F"/><stop offset="1" stop-color="#171717"/></linearGradient></defs></svg>