<svg width="49" height="48" viewBox="0 0 49 48" fill="none" xmlns="http://www.w3.org/2000/svg">
<g clip-path="url(#clip0_2639_4370)">
<path d="M0.5 9.6C0.5 6.23968 0.5 4.55953 1.15396 3.27606C1.7292 2.14708 2.64708 1.2292 3.77606 0.653961C5.05953 0 6.73969 0 10.1 0H38.9C42.2603 0 43.9405 0 45.2239 0.653961C46.3529 1.2292 47.2708 2.14708 47.846 3.27606C48.5 4.55953 48.5 6.23969 48.5 9.6V38.4C48.5 41.7603 48.5 43.4405 47.846 44.7239C47.2708 45.8529 46.3529 46.7708 45.2239 47.346C43.9405 48 42.2603 48 38.9 48H10.1C6.73968 48 5.05953 48 3.77606 47.346C2.64708 46.7708 1.7292 45.8529 1.15396 44.7239C0.5 43.4405 0.5 41.7603 0.5 38.4V9.6Z" fill="#C6D4F9"/>
<path d="M28.5 10C28.5 8.89543 29.3954 8 30.5 8H48.5C49.6046 8 50.5 8.89543 50.5 10V28H28.5V10Z" fill="#8DA4EF"/>
<path d="M20.5 15C20.5 13.8954 21.3954 13 22.5 13H40.5C41.6046 13 42.5 13.8954 42.5 15V28H20.5V15Z" fill="#3E63DD"/>
<path d="M12.5 20C12.5 18.8954 13.3954 18 14.5 18H32.5C33.6046 18 34.5 18.8954 34.5 20V28H12.5V20Z" fill="#3451B2"/>
<path d="M8.5 31C8.5 29.3431 9.84315 28 11.5 28H48.5V48H8.5V31Z" fill="#F8FAFF"/>
<path fill-rule="evenodd" clip-rule="evenodd" d="M36 32C37.3807 32 38.5 33.1193 38.5 34.5C38.5 35.8807 37.3807 37 36 37L27 37C25.6193 37 24.5 35.8807 24.5 34.5C24.5 33.1193 25.6193 32 27 32L36 32Z" fill="#3A5CCC"/>
</g>
<path d="M1 9.6C1 7.91159 1.00039 6.67536 1.08008 5.69993C1.1593 4.73034 1.31438 4.06255 1.59946 3.50305C2.12677 2.46816 2.96816 1.62677 4.00305 1.09946C4.56255 0.814384 5.23034 0.659303 6.19993 0.580085C7.17536 0.500389 8.41159 0.5 10.1 0.5H38.9C40.5884 0.5 41.8246 0.500389 42.8001 0.580085C43.7697 0.659303 44.4374 0.814384 44.9969 1.09946C46.0318 1.62677 46.8732 2.46816 47.4005 3.50305C47.6856 4.06255 47.8407 4.73034 47.9199 5.69993C47.9996 6.67536 48 7.91159 48 9.6V38.4C48 40.0884 47.9996 41.3246 47.9199 42.3001C47.8407 43.2697 47.6856 43.9374 47.4005 44.4969C46.8732 45.5318 46.0318 46.3732 44.9969 46.9005C44.4374 47.1856 43.7697 47.3407 42.8001 47.4199C41.8246 47.4996 40.5884 47.5 38.9 47.5H10.1C8.41159 47.5 7.17536 47.4996 6.19993 47.4199C5.23034 47.3407 4.56255 47.1856 4.00305 46.9005C2.96816 46.3732 2.12677 45.5318 1.59946 44.4969C1.31438 43.9374 1.1593 43.2697 1.08008 42.3001C1.00039 41.3246 1 40.0884 1 38.4V9.6Z" stroke="black" stroke-opacity="0.05"/>
<defs>
<clipPath id="clip0_2639_4370">
<path d="M0.5 9.6C0.5 6.23968 0.5 4.55953 1.15396 3.27606C1.7292 2.14708 2.64708 1.2292 3.77606 0.653961C5.05953 0 6.73969 0 10.1 0H38.9C42.2603 0 43.9405 0 45.2239 0.653961C46.3529 1.2292 47.2708 2.14708 47.846 3.27606C48.5 4.55953 48.5 6.23969 48.5 9.6V38.4C48.5 41.7603 48.5 43.4405 47.846 44.7239C47.2708 45.8529 46.3529 46.7708 45.2239 47.346C43.9405 48 42.2603 48 38.9 48H10.1C6.73968 48 5.05953 48 3.77606 47.346C2.64708 46.7708 1.7292 45.8529 1.15396 44.7239C0.5 43.4405 0.5 41.7603 0.5 38.4V9.6Z" fill="white"/>
</clipPath>
</defs>
</svg>
