<svg width="49" height="48" viewBox="0 0 49 48" fill="none" xmlns="http://www.w3.org/2000/svg">
<g clip-path="url(#clip0_2639_4375)">
<path d="M0.75 9.6C0.75 6.23968 0.75 4.55953 1.40396 3.27606C1.9792 2.14708 2.89708 1.2292 4.02606 0.653961C5.30953 0 6.98969 0 10.35 0H39.15C42.5103 0 44.1905 0 45.4739 0.653961C46.6029 1.2292 47.5208 2.14708 48.096 3.27606C48.75 4.55953 48.75 6.23969 48.75 9.6V38.4C48.75 41.7603 48.75 43.4405 48.096 44.7239C47.5208 45.8529 46.6029 46.7708 45.4739 47.346C44.1905 48 42.5103 48 39.15 48H10.35C6.98968 48 5.30953 48 4.02606 47.346C2.89708 46.7708 1.9792 45.8529 1.40396 44.7239C0.75 43.4405 0.75 41.7603 0.75 38.4V9.6Z" fill="#AFDFD7"/>
<path d="M14.7499 17C17.9548 17 20.0912 19.0839 20.7139 21.515C20.9198 22.3187 20.2137 23 19.3643 23H10.1357C9.28626 23 8.58018 22.3187 8.78605 21.5149C9.40873 19.0839 11.545 17 14.7499 17Z" fill="#53B9AB"/>
<circle cx="14.75" cy="12" r="4" fill="#F1FCFA"/>
<path d="M30.7499 17C33.9548 17 36.0912 19.0839 36.7139 21.515C36.9198 22.3187 36.2137 23 35.3643 23H26.1357C25.2863 23 24.5802 22.3187 24.786 21.5149C25.4087 19.0839 27.545 17 30.7499 17Z" fill="#F1FCFA"/>
<circle cx="30.75" cy="12" r="4" fill="#53B9AB"/>
<path d="M46.7499 17C49.9548 17 52.0912 19.0839 52.7139 21.515C52.9198 22.3187 52.2137 23 51.3643 23H42.1357C41.2863 23 40.5802 22.3187 40.786 21.5149C41.4087 19.0839 43.545 17 46.7499 17Z" fill="#53B9AB"/>
<circle cx="46.75" cy="12" r="4" fill="#F1FCFA"/>
<path d="M8.75 28C8.75 26.8954 9.64543 26 10.75 26H18.75C19.8546 26 20.75 26.8954 20.75 28V33C20.75 34.1046 19.8546 35 18.75 35H10.75C9.64543 35 8.75 34.1046 8.75 33V28Z" fill="#F1FCFA"/>
<path fill-rule="evenodd" clip-rule="evenodd" d="M15.75 28C16.3023 28 16.75 28.4477 16.75 29C16.75 29.5523 16.3023 30 15.75 30L11.75 30C11.1977 30 10.75 29.5523 10.75 29C10.75 28.4477 11.1977 28 11.75 28L15.75 28Z" fill="#067A6F"/>
<path d="M24.75 28C24.75 26.8954 25.6454 26 26.75 26H34.75C35.8546 26 36.75 26.8954 36.75 28V38C36.75 39.1046 35.8546 40 34.75 40H26.75C25.6454 40 24.75 39.1046 24.75 38V28Z" fill="#F1FCFA"/>
<path d="M40.75 28C40.75 26.8954 41.6454 26 42.75 26H50.75C51.8546 26 52.75 26.8954 52.75 28V48H40.75V28Z" fill="#F1FCFA"/>
<path fill-rule="evenodd" clip-rule="evenodd" d="M33.75 28C34.3023 28 34.75 28.4477 34.75 29C34.75 29.5523 34.3023 30 33.75 30L27.75 30C27.1977 30 26.75 29.5523 26.75 29C26.75 28.4477 27.1977 28 27.75 28L33.75 28Z" fill="#53B9AB"/>
<path fill-rule="evenodd" clip-rule="evenodd" d="M49.75 36C50.3023 36 50.75 36.4477 50.75 37C50.75 37.5523 50.3023 38 49.75 38L45.75 38C45.1977 38 44.75 37.5523 44.75 37C44.75 36.4477 45.1977 36 45.75 36L49.75 36Z" fill="#53B9AB"/>
<path fill-rule="evenodd" clip-rule="evenodd" d="M30.75 32C31.3023 32 31.75 32.4477 31.75 33C31.75 33.5523 31.3023 34 30.75 34L27.75 34C27.1977 34 26.75 33.5523 26.75 33C26.75 32.4477 27.1977 32 27.75 32L30.75 32Z" fill="#C7EBE5"/>
<path fill-rule="evenodd" clip-rule="evenodd" d="M49.75 28C50.3023 28 50.75 28.4477 50.75 29C50.75 29.5523 50.3023 30 49.75 30L43.75 30C43.1977 30 42.75 29.5523 42.75 29C42.75 28.4477 43.1977 28 43.75 28L49.75 28Z" fill="#C7EBE5"/>
<path fill-rule="evenodd" clip-rule="evenodd" d="M49.75 32C50.3023 32 50.75 32.4477 50.75 33C50.75 33.5523 50.3023 34 49.75 34L43.75 34C43.1977 34 42.75 33.5523 42.75 33C42.75 32.4477 43.1977 32 43.75 32L49.75 32Z" fill="#067A6F"/>
</g>
<path d="M1.25 9.6C1.25 7.91159 1.25039 6.67536 1.33008 5.69993C1.4093 4.73034 1.56438 4.06255 1.84946 3.50305C2.37677 2.46816 3.21816 1.62677 4.25305 1.09946C4.81255 0.814384 5.48034 0.659303 6.44993 0.580085C7.42536 0.500389 8.66159 0.5 10.35 0.5H39.15C40.8384 0.5 42.0746 0.500389 43.0501 0.580085C44.0197 0.659303 44.6874 0.814384 45.2469 1.09946C46.2818 1.62677 47.1232 2.46816 47.6505 3.50305C47.9356 4.06255 48.0907 4.73034 48.1699 5.69993C48.2496 6.67536 48.25 7.91159 48.25 9.6V38.4C48.25 40.0884 48.2496 41.3246 48.1699 42.3001C48.0907 43.2697 47.9356 43.9374 47.6505 44.4969C47.1232 45.5318 46.2818 46.3732 45.2469 46.9005C44.6874 47.1856 44.0197 47.3407 43.0501 47.4199C42.0746 47.4996 40.8384 47.5 39.15 47.5H10.35C8.66159 47.5 7.42536 47.4996 6.44993 47.4199C5.48034 47.3407 4.81255 47.1856 4.25305 46.9005C3.21816 46.3732 2.37677 45.5318 1.84946 44.4969C1.56438 43.9374 1.4093 43.2697 1.33008 42.3001C1.25039 41.3246 1.25 40.0884 1.25 38.4V9.6Z" stroke="black" stroke-opacity="0.05"/>
<defs>
<clipPath id="clip0_2639_4375">
<path d="M0.75 9.6C0.75 6.23968 0.75 4.55953 1.40396 3.27606C1.9792 2.14708 2.89708 1.2292 4.02606 0.653961C5.30953 0 6.98969 0 10.35 0H39.15C42.5103 0 44.1905 0 45.4739 0.653961C46.6029 1.2292 47.5208 2.14708 48.096 3.27606C48.75 4.55953 48.75 6.23969 48.75 9.6V38.4C48.75 41.7603 48.75 43.4405 48.096 44.7239C47.5208 45.8529 46.6029 46.7708 45.4739 47.346C44.1905 48 42.5103 48 39.15 48H10.35C6.98968 48 5.30953 48 4.02606 47.346C2.89708 46.7708 1.9792 45.8529 1.40396 44.7239C0.75 43.4405 0.75 41.7603 0.75 38.4V9.6Z" fill="white"/>
</clipPath>
</defs>
</svg>
