<svg xmlns="http://www.w3.org/2000/svg" width="120" height="120" fill="none" viewBox="0 0 120 120"><g filter="url(#a)"><path fill="url(#b)" d="M28 44c0-8.837 7.163-16 16-16h32c8.837 0 16 7.163 16 16v32c0 8.837-7.163 16-16 16H44c-8.837 0-16-7.163-16-16V44Z"/><path fill="#fff" fill-rule="evenodd" d="M90 76V44c0-7.732-6.268-14-14-14H44c-7.732 0-14 6.268-14 14v32c0 7.732 6.268 14 14 14h32c7.732 0 14-6.268 14-14ZM44 28c-8.837 0-16 7.163-16 16v32c0 8.837 7.163 16 16 16h32c8.837 0 16-7.163 16-16V44c0-8.837-7.163-16-16-16H44Z" clip-rule="evenodd"/><path fill="url(#c)" fill-rule="evenodd" d="M91 76V44c0-8.284-6.716-15-15-15H44c-8.284 0-15 6.716-15 15v32c0 8.284 6.716 15 15 15h32c8.284 0 15-6.716 15-15ZM44 28c-8.837 0-16 7.163-16 16v32c0 8.837 7.163 16 16 16h32c8.837 0 16-7.163 16-16V44c0-8.837-7.163-16-16-16H44Z" clip-rule="evenodd"/><path fill="#BDBEC2" fill-rule="evenodd" d="M78.248 46.732a2.454 2.454 0 0 1 0 3.536l-22.595 22a2.617 2.617 0 0 1-3.63 0l-10.271-10a2.454 2.454 0 0 1 0-3.536 2.617 2.617 0 0 1 3.631 0l8.455 8.233 20.779-20.233a2.617 2.617 0 0 1 3.631 0Z" clip-rule="evenodd"/><path fill="#262A33" d="M100 90c0 5.523-4.477 10-10 10s-10-4.477-10-10 4.477-10 10-10 10 4.477 10 10Z"/><path fill="url(#d)" fill-rule="evenodd" d="M90 99a9 9 0 1 0 0-18 9 9 0 0 0 0 18Zm0 1c5.523 0 10-4.477 10-10s-4.477-10-10-10-10 4.477-10 10 4.477 10 10 10Z" clip-rule="evenodd"/><path fill="#fff" d="M91 85.81a1.041 1.041 0 1 0-2.082 0v3.109h-3.051a1.041 1.041 0 1 0 0 2.082h3.051v3.188a1.041 1.041 0 1 0 2.083 0v-3.188h3.246a1.041 1.041 0 1 0 0-2.082h-3.246v-3.11Z"/></g><defs><filter id="a" width="140" height="140" x="-10" y="-2" color-interpolation-filters="sRGB" filterUnits="userSpaceOnUse"><feFlood flood-opacity="0" result="BackgroundImageFix"/><feColorMatrix in="SourceAlpha" result="hardAlpha" values="0 0 0 0 0 0 0 0 0 0 0 0 0 0 0 0 0 0 127 0"/><feOffset dy="8"/><feGaussianBlur stdDeviation="5"/><feComposite in2="hardAlpha" operator="out"/><feColorMatrix values="0 0 0 0 0.34902 0 0 0 0 0.364706 0 0 0 0 0.4 0 0 0 0.2 0"/><feBlend in2="BackgroundImageFix" result="effect1_dropShadow_6_482"/><feBlend in="SourceGraphic" in2="effect1_dropShadow_6_482" result="shape"/></filter><linearGradient id="b" x1="48.211" x2="48.897" y1="90.523" y2="14.474" gradientUnits="userSpaceOnUse"><stop stop-color="#fff"/><stop offset="1" stop-color="#EEEFF0"/></linearGradient><linearGradient id="c" x1="60" x2="60" y1="28" y2="92" gradientUnits="userSpaceOnUse"><stop stop-color="#DEDFE0"/><stop offset="1" stop-color="#EEEFF0"/></linearGradient><linearGradient id="d" x1="90" x2="90" y1="80" y2="100" gradientUnits="userSpaceOnUse"><stop stop-color="#595D66"/><stop offset="1" stop-color="#1D2026"/></linearGradient></defs></svg>